<svg id="Layer_1" data-name="Layer 1" xmlns="http://www.w3.org/2000/svg" viewBox="0 0 358.14 536.34"><defs><style>.cls-1{fill:#f8a81b;}.cls-2{fill:#fff;}.cls-3{fill:#352f2f;}</style></defs><path class="cls-1" d="M291.16,244.84c-18.82-18.91-41.92-31.88-69-38.82-1.32,1.25-2.68,2.46-4.08,3.6l2.11,3.57a4.19,4.19,0,0,1-1.46,5.72l-12.85,7.59a4.11,4.11,0,0,1-3.16.45,4.18,4.18,0,0,1-2.55-1.91L198,221.46A78.92,78.92,0,0,1,163.42,227l-1.77,6.88a4.15,4.15,0,0,1-1.91,2.55,4.09,4.09,0,0,1-2.11.58,4.22,4.22,0,0,1-1.06-.13l-20.43-5.25a4.16,4.16,0,0,1-3-5.07l1.77-6.88a78.76,78.76,0,0,1-27.66-21.55l-3.58,2.12A4.17,4.17,0,0,1,98,198.8L90.35,186a4.16,4.16,0,0,1,1.47-5.71l3.57-2.12a79,79,0,0,1-5.56-34.62L83,141.75a4.16,4.16,0,0,1-2.55-1.92,4.11,4.11,0,0,1-.45-3.16l5.12-19.94a4.18,4.18,0,0,1,5.08-3L97,115.49a78.94,78.94,0,0,1,21.55-27.66l-2.12-3.58a4.2,4.2,0,0,1-.45-3.16,4.16,4.16,0,0,1,1.92-2.55l12.84-7.6a4.18,4.18,0,0,1,5.72,1.47L138.59,76a79.07,79.07,0,0,1,34.62-5.56L175,63.55a4.14,4.14,0,0,1,5.07-3l20.44,5.24a4.16,4.16,0,0,1,3,5.08l-1.76,6.87a79,79,0,0,1,27.66,21.55L233,97.18a4.17,4.17,0,0,1,5.71,1.46l7.6,12.85a4.16,4.16,0,0,1-1.47,5.71l-3.58,2.11a78.93,78.93,0,0,1,5.57,34.62l6.87,1.77a4.12,4.12,0,0,1,2.56,1.91,4.21,4.21,0,0,1,.45,3.16l-2.76,10.75a34.05,34.05,0,0,0,26.68-33.2c0-27.85-9.81-52.69-28.37-71.84C236.24,50,214,38.56,189.61,34.31a126.11,126.11,0,0,0-76.75,10.62,110.77,110.77,0,0,0-56.32,63.13c-13.67,38.05-8.71,79.43,13.27,110.68,15.71,22.34,38.27,37.62,65.35,44.74a105.67,105.67,0,0,1,33.57-10.55l.07-5.61a5.63,5.63,0,0,1,5.69-5.55l20.12.26a5.62,5.62,0,0,1,5.55,5.69l-.08,5.6a106.36,106.36,0,0,1,43.77,17.86l6.85-6.68a5.61,5.61,0,0,1,7.95.1L278,284.47a5.61,5.61,0,0,1-.1,7.95l-6.84,6.68a106.56,106.56,0,0,1,16.74,44.2l5.6.07a5.62,5.62,0,0,1,5.55,5.69l-.25,20.12a5.63,5.63,0,0,1-5.7,5.55l-5.59-.07a106.51,106.51,0,0,1-17.86,43.76l6.67,6.85a5.6,5.6,0,0,1,1.6,4,5.54,5.54,0,0,1-.81,2.84,5.23,5.23,0,0,1-.89,1.11l-20.36,19.86a5.63,5.63,0,0,1-8-.1l-6.67-6.85A106.39,106.39,0,0,1,197,462.87l-.07,5.61a5.63,5.63,0,0,1-5.7,5.55l-20.11-.26a5.54,5.54,0,0,1-3.95-1.69,5.6,5.6,0,0,1-1.6-4l.07-5.6a106.38,106.38,0,0,1-43.76-17.86L115,451.3a5.61,5.61,0,0,1-8-.1L87.65,431.33a5.6,5.6,0,0,1-1.6-4,5.52,5.52,0,0,1,1.71-3.95l6.84-6.68a106.44,106.44,0,0,1-16.75-44.2l-5.6-.07a5.63,5.63,0,0,1-5.55-5.69L67,346.62a5.62,5.62,0,0,1,5.69-5.55l5.6.07A105.05,105.05,0,0,1,82.91,323,34,34,0,0,0,58.7,312.75h-.1a34.07,34.07,0,0,0-34,33.84C24.38,393.68,40,434.29,69.73,464c28.55,28.54,68.31,44.26,112,44.26h.88c42.88-.21,82.37-17,111.19-47.16,26.72-28,42.14-65.87,42.32-103.86C336.15,341.56,333.13,287,291.16,244.84Z"/><rect class="cls-2" x="151.06" y="147.93" width="144.63" height="28.66" rx="14.33" transform="translate(44.11 -47.72) rotate(13.52)"/><path class="cls-3" d="M233.11,152.5h0a4.65,4.65,0,0,0-2.9-2.07l-5.11-1.18a56.73,56.73,0,0,0-3.3-19.36l3.53-2.2a4.66,4.66,0,0,0,1.49-6.43l-7.89-12.67a4.7,4.7,0,0,0-6.44-1.49L209,109.3A56.63,56.63,0,0,0,193,97.82l1.19-5.1a4.68,4.68,0,0,0-3.5-5.61l-15.41-3.58a4.68,4.68,0,0,0-5.61,3.5l-1.18,5.1a56.47,56.47,0,0,0-19.35,3.3L147,91.9a4.68,4.68,0,0,0-6.43-1.49L127.88,98.3a4.68,4.68,0,0,0-1.5,6.44l2.2,3.52a56.79,56.79,0,0,0-11.48,15.92L112,123a4.66,4.66,0,0,0-5.61,3.49l-3.46,14.92a4.65,4.65,0,0,0,3.49,5.6l5.1,1.19a56.58,56.58,0,0,0,3.31,19.36l-3.53,2.19a4.67,4.67,0,0,0-1.49,6.44l7.89,12.66a4.67,4.67,0,0,0,6.44,1.49l3.52-2.19a56.63,56.63,0,0,0,15.93,11.48l-1.19,5.1a4.68,4.68,0,0,0,3.5,5.61l15.41,3.57a4.73,4.73,0,0,0,1.18.12,4.57,4.57,0,0,0,2.35-.7,4.62,4.62,0,0,0,2.08-2.91l1.18-5.1a56.67,56.67,0,0,0,19.35-3.3l2.2,3.52a4.68,4.68,0,0,0,6.44,1.5l12.66-7.9a4.66,4.66,0,0,0,1.49-6.43l-2.19-3.53a56.7,56.7,0,0,0,11.48-15.92l5.1,1.18a4.61,4.61,0,0,0,3.53-.58,4.66,4.66,0,0,0,2.08-2.91L233.7,156A4.66,4.66,0,0,0,233.11,152.5Zm-10.92,11.79-4.31-1a4.62,4.62,0,0,0-5.4,2.81A47.41,47.41,0,0,1,199,184.77h0a4.69,4.69,0,0,0-.95,6l1.79,2.88-4.74,2.95-1.79-2.87a4.71,4.71,0,0,0-5.85-1.81,47.46,47.46,0,0,1-22.68,3.88,4.63,4.63,0,0,0-4.91,3.6l-1,4.32-6.32-1.47,1-4.31a4.67,4.67,0,0,0-2.83-5.41,47.4,47.4,0,0,1-18.65-13.46,4.71,4.71,0,0,0-6.05-1l-2.87,1.8-3-4.74,2.87-1.79a4.63,4.63,0,0,0,1.8-5.85A47.35,47.35,0,0,1,121,144.88a4.65,4.65,0,0,0-3.61-4.9l-4.31-1,1.35-5.82,4.31,1a4.65,4.65,0,0,0,5.4-2.82,47.56,47.56,0,0,1,13.47-18.67,4.69,4.69,0,0,0,.95-6l-1.79-2.87,4.74-3,1.79,2.87a4.7,4.7,0,0,0,5.85,1.8,47.37,47.37,0,0,1,22.69-3.87,4.65,4.65,0,0,0,4.9-3.6l1-4.32,6.32,1.46-1,4.32a4.65,4.65,0,0,0,2.82,5.4,47.46,47.46,0,0,1,18.66,13.46,4.68,4.68,0,0,0,6,1l2.87-1.79,2.95,4.74L213.55,124a4.63,4.63,0,0,0-1.8,5.84,47.37,47.37,0,0,1,3.87,22.69,4.66,4.66,0,0,0,3.61,4.91l4.31,1Z"/><path class="cls-1" d="M178.75,378.23a16.6,16.6,0,0,1-16.19-20.31l41.61-183-39.72-8.81A16.6,16.6,0,0,1,168,133.32a17,17,0,0,1,3.55.38l112,26a16.6,16.6,0,0,1-3.22,32.8h-.19c-1.3,0-1.68,0-43.59-10.24L194.92,365.32a16.59,16.59,0,0,1-15.79,12.91Z"/><path class="cls-2" d="M168,136.92a13.07,13.07,0,0,1,2.78.3l112,26a13,13,0,0,1-2.48,25.7h-.11c-.85,0-3-.43-46.28-11L191.41,364.53a13,13,0,0,1-12.36,10.1h-.3a13,13,0,0,1-12.68-15.9l42.41-186.51-43.25-9.6A13,13,0,0,1,161,139a13,13,0,0,1,7-2.07m0-7.2a20.2,20.2,0,0,0-4.27,39.94l36.14,8-40.8,179.45a20.2,20.2,0,0,0,19.7,24.7h.47a20.19,20.19,0,0,0,19.21-15.7l40.82-179.52c38.8,9.47,39.15,9.47,40.89,9.47h.28a20.2,20.2,0,0,0,3.9-39.92L172.39,130.21l0,0h-.05a20.9,20.9,0,0,0-4.31-.46Z"/><rect class="cls-3" x="273.14" y="170.37" width="9.6" height="9.6" transform="matrix(0.82, -0.57, 0.57, 0.82, -50.22, 190.97)"/><rect class="cls-3" x="163.64" y="144.65" width="9.6" height="9.6" transform="translate(-55.25 123.55) rotate(-34.98)"/><path class="cls-3" d="M228.82,315.76a3.62,3.62,0,0,0,4.68.61l5.64-3.73,6.61,10-5.64,3.73a3.61,3.61,0,0,0-1.27,4.54,63.45,63.45,0,0,1,6,30.2,3.63,3.63,0,0,0,2.88,3.71l7.95,1.63L253,379.36l-7.95-1.63A3.58,3.58,0,0,0,241,380a63.48,63.48,0,0,1-17.36,25.43,3.62,3.62,0,0,0-.61,4.68l3.73,5.64-10,6.62L213,416.73a3.63,3.63,0,0,0-4.55-1.27,63.39,63.39,0,0,1-30.2,6,3.56,3.56,0,0,0-3.7,2.87l-1.63,7.95L160,429.62l1.63-7.95a3.58,3.58,0,0,0-2.29-4.1,63.6,63.6,0,0,1-25.42-17.35,3.61,3.61,0,0,0-4.68-.62l-5.64,3.73-6.62-10,5.65-3.73a3.62,3.62,0,0,0,1.27-4.54,63.38,63.38,0,0,1-6-30.2,3.61,3.61,0,0,0-2.88-3.71l-8-1.63,2.64-12.89,8,1.62a3.56,3.56,0,0,0,4.1-2.28,63.43,63.43,0,0,1,17.35-25.43,3.62,3.62,0,0,0,.61-4.68L136,300.21l10-6.61,3.73,5.64a3.61,3.61,0,0,0,4.54,1.27,62.94,62.94,0,0,1,17.25-5.3l1.71-.27-2.58,12.61-.76.17a51.86,51.86,0,1,0,41.69,8.54l-.62-.46,2.58-12.61,1.46.91A63.18,63.18,0,0,1,228.82,315.76Z"/><path class="cls-3" d="M194.14,349.94a16.53,16.53,0,1,0-18,24.71,16.8,16.8,0,0,0,4.16.46,16.53,16.53,0,0,0,13.8-25.17Zm-11.44,13a5.09,5.09,0,1,1,1.68-7A5.09,5.09,0,0,1,182.7,362.91Z"/></svg>