<svg id="Layer_1" data-name="Layer 1" xmlns="http://www.w3.org/2000/svg" viewBox="0 0 678 681.13"><defs><style>.cls-1{fill:#352f2f;}.cls-2{fill:#f8a81b;}.cls-3{fill:#fff;}</style></defs><circle class="cls-1" cx="335.77" cy="334.29" r="310.72"/><path class="cls-2" d="M451.09,306.85c-29.58-29.72-69.74-44.79-119.37-44.79-20.63,0-37.1-7.25-46.36-20.42s-11.1-31.33-4.9-48.58c9.24-25.71,36.23-33.45,57.4-29.75,8.14,1.41,34.67,8.27,34.67,37a34,34,0,1,0,68,0c0-27.85-9.81-52.69-28.37-71.84-16-16.5-38.24-27.93-62.62-32.17a126.1,126.1,0,0,0-76.75,10.62,110.71,110.71,0,0,0-56.32,63.13c-13.68,38.05-8.72,79.43,13.26,110.68,22.37,31.8,58.59,49.31,102,49.31,30.88,0,54.82,8.33,71.17,24.76,18.65,18.73,25.2,45.42,25.11,64.15-.1,20.8-8.67,41.67-23.53,57.24-16,16.71-38.07,26-62.32,26.1h-.63c-25.43,0-48.06-8.64-63.78-24.35-16.63-16.63-25.35-40.5-25.21-69a34.07,34.07,0,0,0-33.9-34.16h-.11a34.06,34.06,0,0,0-34,33.84c-.23,47.09,15.38,87.7,45.13,117.44,28.54,28.55,68.3,44.27,112,44.27h.87c42.89-.21,82.38-17,111.19-47.16,26.72-28,42.15-65.87,42.33-103.86C496.07,403.57,493.05,349,451.09,306.85Z"/><path class="cls-1" d="M414.62,324.91a5.6,5.6,0,0,0-4,1.6l-6.85,6.68A106.38,106.38,0,0,0,360,315.33l.07-5.6a5.63,5.63,0,0,0-5.55-5.7l-20.12-.25a5.63,5.63,0,0,0-5.69,5.55l-.07,5.6a106.54,106.54,0,0,0-44.2,16.75l-6.68-6.85a5.61,5.61,0,0,0-7.95-.1l-20.36,19.86a5.53,5.53,0,0,0-1.7,4,5.6,5.6,0,0,0,1.6,4l6.67,6.85a106.54,106.54,0,0,0-17.86,43.76l-5.59-.07a5.63,5.63,0,0,0-5.7,5.55l-.25,20.12a5.62,5.62,0,0,0,5.55,5.69l5.6.07a106.42,106.42,0,0,0,16.74,44.2l-6.84,6.67a5.63,5.63,0,0,0-.1,8L267,513.21a5.61,5.61,0,0,0,7.95.1l6.85-6.68a106.36,106.36,0,0,0,43.77,17.86l-.08,5.6a5.62,5.62,0,0,0,5.56,5.69l20.11.26a5.63,5.63,0,0,0,5.69-5.55l.07-5.61a106.39,106.39,0,0,0,44.2-16.74l6.68,6.85a5.63,5.63,0,0,0,4,1.7,5.56,5.56,0,0,0,4-1.6l20.36-19.86a5.4,5.4,0,0,0,.9-1.12,5.48,5.48,0,0,0,.81-2.83,5.6,5.6,0,0,0-1.6-4l-6.68-6.85a106.38,106.38,0,0,0,17.86-43.76l5.6.07a5.62,5.62,0,0,0,5.69-5.55l.26-20.12a5.63,5.63,0,0,0-5.55-5.69l-5.6-.07A106.44,106.44,0,0,0,431,361.11l6.85-6.68a5.61,5.61,0,0,0,.1-7.95l-19.38-19.87A5.57,5.57,0,0,0,414.62,324.91Z"/><path class="cls-1" d="M416.15,219.62a4.08,4.08,0,0,0-2.55-1.91l-6.88-1.77a78.75,78.75,0,0,0-5.56-34.62l3.58-2.11a4.19,4.19,0,0,0,1.46-5.72l-7.59-12.84a4.19,4.19,0,0,0-5.72-1.47l-3.57,2.12a79,79,0,0,0-27.66-21.55l1.76-6.87a4.18,4.18,0,0,0-3-5.08L340,122.56a4.16,4.16,0,0,0-5.08,3l-1.76,6.87A79.07,79.07,0,0,0,298.52,138l-2.12-3.57a4.16,4.16,0,0,0-5.71-1.47l-12.84,7.6a4.16,4.16,0,0,0-1.47,5.71l2.11,3.58A79,79,0,0,0,257,177.5l-6.87-1.76a4.14,4.14,0,0,0-5.08,3l-5.12,19.94a4.18,4.18,0,0,0,3,5.08l6.88,1.76a78.75,78.75,0,0,0,5.56,34.62l-3.58,2.12a4.17,4.17,0,0,0-1.46,5.71l7.59,12.84a4.18,4.18,0,0,0,5.72,1.47l3.57-2.12a78.76,78.76,0,0,0,27.66,21.55l-1.76,6.87a4.17,4.17,0,0,0,3,5.08l20.44,5.25a4.19,4.19,0,0,0,1.05.13,4.07,4.07,0,0,0,2.11-.58,4.16,4.16,0,0,0,1.92-2.55l1.76-6.88A78.9,78.9,0,0,0,358,283.47l2.12,3.57a4.16,4.16,0,0,0,5.71,1.47l12.84-7.6a4.16,4.16,0,0,0,1.47-5.71L378,271.63A79,79,0,0,0,399.53,244l6.88,1.77a4.16,4.16,0,0,0,5.07-3l5.12-19.94A4.12,4.12,0,0,0,416.15,219.62Z"/><path class="cls-3" d="M392.93,216h0a4.64,4.64,0,0,0-2.85-2.14l-5.08-1.3a56.44,56.44,0,0,0-2.85-19.43l3.58-2.12a4.67,4.67,0,0,0,1.64-6.39l-7.6-12.85a4.68,4.68,0,0,0-6.4-1.64l-3.57,2.11a56.62,56.62,0,0,0-15.65-11.85l1.3-5.07a4.65,4.65,0,0,0-3.36-5.68l-15.33-3.94a4.67,4.67,0,0,0-5.69,3.36l-1.3,5.08A56.41,56.41,0,0,0,310.35,157l-2.12-3.58a4.68,4.68,0,0,0-6.4-1.64L289,159.39a4.65,4.65,0,0,0-1.64,6.39l2.11,3.58A56.52,56.52,0,0,0,277.61,185l-5.07-1.3a4.67,4.67,0,0,0-5.69,3.36L263,201.9a4.67,4.67,0,0,0,3.36,5.68l5.08,1.31a56.51,56.51,0,0,0,2.85,19.43l-3.58,2.11a4.68,4.68,0,0,0-1.64,6.4l7.6,12.84a4.66,4.66,0,0,0,6.4,1.64l3.57-2.11a56.62,56.62,0,0,0,15.65,11.85l-1.3,5.07a4.67,4.67,0,0,0,3.36,5.69l15.33,3.93a4.77,4.77,0,0,0,1.18.15,4.68,4.68,0,0,0,4.51-3.51l1.3-5.07a56.39,56.39,0,0,0,19.42-2.86l2.12,3.58a4.68,4.68,0,0,0,6.4,1.65l12.84-7.6a4.66,4.66,0,0,0,1.64-6.4L367,252.1a56.62,56.62,0,0,0,11.85-15.64l5.07,1.3a4.69,4.69,0,0,0,5.69-3.37l3.81-14.83A4.62,4.62,0,0,0,392.93,216Z"/><rect class="cls-3" x="310.98" y="209.94" width="144.63" height="28.66" rx="14.33" transform="translate(63.04 -83.38) rotate(13.52)"/><path class="cls-1" d="M322.16,230.46,358,239.08l-20.85,90c2.28.56,4.54,1.17,6.8,1.82l21-90.16L391,247l-17.2,72.36c2.23.64-1,23,1.25,23.66.14,0,5.69-21.62,5.83-21.58L398,248.7l35.87,8.62a20.57,20.57,0,1,0,9.61-40L331.77,190.46a20.57,20.57,0,0,0-9.61,40Z"/><path class="cls-1" d="M311.24,263.92l6.28,1.61,1.11-4.29a4.63,4.63,0,0,1,5-3.49,47.35,47.35,0,0,0,22.76-3.34,4.7,4.7,0,0,1,5.81,1.94l1.72,2.91,4.81-2.84L357,253.5a4.7,4.7,0,0,1,1.1-6h0A47.49,47.49,0,0,0,372,229.13a4.62,4.62,0,0,1,5.46-2.68l4.29,1.1,1.49-5.79-4.3-1.1a4.65,4.65,0,0,1-3.49-5,47.39,47.39,0,0,0-3.34-22.77,4.65,4.65,0,0,1,1.94-5.81l2.91-1.72-2.84-4.8-2.92,1.72a4.68,4.68,0,0,1-6-1.1,47.47,47.47,0,0,0-18.33-13.89,4.65,4.65,0,0,1-2.7-5.46l1.1-4.3L339,155.93l-1.11,4.3a4.63,4.63,0,0,1-5,3.48,47.47,47.47,0,0,0-22.78,3.35,4.71,4.71,0,0,1-5.8-1.94l-1.72-2.91-4.81,2.84,1.73,2.91a4.71,4.71,0,0,1-1.09,6,47.49,47.49,0,0,0-13.91,18.35A4.64,4.64,0,0,1,279,195l-4.29-1.1-1.49,5.78,4.3,1.11a4.66,4.66,0,0,1,3.49,5,47.38,47.38,0,0,0,3.34,22.77,4.65,4.65,0,0,1-1.94,5.81l-2.91,1.72,2.84,4.81,2.92-1.73a4.7,4.7,0,0,1,6,1.1,47.47,47.47,0,0,0,18.33,13.89,4.65,4.65,0,0,1,2.7,5.47Z"/><polygon class="cls-1" points="353.73 403.93 327.72 397.67 369.08 223.92 395.08 230.17 353.73 403.93"/><path class="cls-2" d="M450.8,230.85a13,13,0,0,0-8.14-5.66l-112-26a13,13,0,0,0-5.53,25.4l43.24,9.6L326,420.73a13,13,0,0,0,9.77,15.58,13.36,13.36,0,0,0,3.21.33,13,13,0,0,0,12.37-10.11l42.44-186.64c45.14,11,45.54,11,46.4,11a13,13,0,0,0,10.62-20Z"/><rect class="cls-1" x="433.06" y="232.38" width="9.6" height="9.6" transform="matrix(0.82, -0.57, 0.57, 0.82, -56.88, 293.85)"/><rect class="cls-1" x="323.56" y="206.66" width="9.6" height="9.6" transform="translate(-61.91 226.43) rotate(-34.98)"/><path class="cls-3" d="M340.26,437.12a16.85,16.85,0,0,1-4.16-.46,16.46,16.46,0,0,1-10.23-7.44h0a16.53,16.53,0,1,1,14.39,7.9Z"/><path class="cls-3" d="M388.74,377.77a3.62,3.62,0,0,0,4.68.61l5.64-3.73,6.62,10L400,388.39a3.62,3.62,0,0,0-1.27,4.54,63.31,63.31,0,0,1,6,30.2,3.64,3.64,0,0,0,2.88,3.71l7.95,1.63-2.64,12.9L405,439.74a3.56,3.56,0,0,0-4.09,2.28,63.48,63.48,0,0,1-17.36,25.43,3.62,3.62,0,0,0-.61,4.68l3.72,5.64-10,6.61-3.73-5.64a3.62,3.62,0,0,0-4.54-1.27,63.53,63.53,0,0,1-30.2,6,3.57,3.57,0,0,0-3.71,2.87l-1.62,7.95-12.9-2.64,1.62-7.95a3.6,3.6,0,0,0-2.28-4.11,63.36,63.36,0,0,1-25.43-17.35,3.61,3.61,0,0,0-4.67-.61l-5.65,3.73-6.61-10,5.64-3.73a3.62,3.62,0,0,0,1.28-4.54,63.41,63.41,0,0,1-6-30.2,3.58,3.58,0,0,0-2.88-3.71L267,411.52l2.64-12.9,8,1.63a3.57,3.57,0,0,0,4.1-2.28,63.48,63.48,0,0,1,17.36-25.43,3.62,3.62,0,0,0,.61-4.68l-3.73-5.64,10-6.61,3.72,5.64a3.63,3.63,0,0,0,4.55,1.27,62.83,62.83,0,0,1,17.25-5.3l1.7-.27-2.58,12.61-.75.17a51.81,51.81,0,1,0,41.69,8.53l-.63-.45,2.58-12.61,1.47.91A62.9,62.9,0,0,1,388.74,377.77Z"/><path class="cls-1" d="M344.31,417.93a5.09,5.09,0,1,1-7-1.69,5.09,5.09,0,0,1,7,1.69Z"/></svg>
